<svg id="Layer_1" data-name="Layer 1" xmlns="http://www.w3.org/2000/svg" viewBox="0 0 183.87063 109.86775"><defs><style>.cls-1{fill:#fff;}</style></defs><title>index</title><rect x="37.32882" y="16.04919" width="59.7886" height="59.7886"/><path class="cls-1" d="M77.94976,25.85235H68.2637v-6.6699a1.04,1.04,0,1,0-2.07992,0v6.6699H56.49772a3.26575,3.26575,0,0,0-3.30638,3.254c0,.04632.01137.20633.01289.21535l5.86011,36.97089a1.04013,1.04013,0,0,0,1.02707.87717h6.09237v5.53481a1.04,1.04,0,1,0,2.07992,0V67.16972h6.09251a1.04025,1.04025,0,0,0,1.0272-.87717l5.86011-36.97089c.00139-.00874.01165-.20994.01137-.21534A3.30976,3.30976,0,0,0,77.94976,25.85235Zm.85512,5.56725H70.95706a1.04,1.04,0,0,0,0,2.07993h7.51809l-.92474,5.834h-4.811a1.04,1.04,0,0,0,0,2.07992h4.4814l-.92473,5.83377H68.99084a1.04,1.04,0,0,0,0,2.07992h6.9755l-.92459,5.83376H70.95706a1.04,1.04,0,1,0,0,2.07992h3.755l-1.24407,7.84866H60.97953l-.6169-3.89168h5.90393a1.04,1.04,0,1,0,0-2.07992H60.033l-.92473-5.834h9.33843a1.04,1.04,0,0,0,0-2.07992H58.77856l-.92474-5.83377h7.57009a1.04,1.04,0,0,0,0-2.07992H57.52422l-.92473-5.83376H61.5791a1.04,1.04,0,0,0,0-2.07992H56.26975l-.99545-6.28012a1.227,1.227,0,0,1,1.22327-1.1642h21.452a1.22694,1.22694,0,0,1,1.22327,1.1642Z"/></svg>